# xmcd
#
# Track frame offsets:
# 150
# 23512
# 41312
# 64292
# 89755
# 106034
# 140812
# 166949
# 195089
# 213382
# 235147
# 261221
# 288079
# 311386
#
# Disc length: 4507 seconds
#
#
# Revision: 1
# Processed by: cddbd v1.5.1PL0 Copyright (c) Steve Scherf et al.
# Submitted via: FreeRIP 2.942 
#
DISCID=b711990e
DTITLE=Parliament - Gold [CD1]
DYEAR=2005
DGENRE=Funk
TTITLE0=Up For The Down Stroke
TTITLE1=Testify
TTITLE2=All Your Goodies Are Gone
TTITLE3=Chocolate City
TTITLE4=Ride On
TTITLE5=P. Funk (Wants to Get Funked Up)
TTITLE6=Give Up the Funk (Tear the Roof Off the Sucker)
TTITLE7=Mothership Connection (Star Child)
TTITLE8=Handcuffs
TTITLE9=Do That Stuff
TTITLE10=Dr. Funkenstein
TTITLE11=Funkin' For Fun
TTITLE12=Dr. Funkenstein's Supergroovalistic-Prosifunkstication Medley:  Let's Take It to the Stage/Take Your Dead Ass Home (Say Som'n Nasty) (Live)
TTITLE13=Fantasy Is Reality
EXTD=
EXTT0=
EXTT1=
EXTT2=
EXTT3=
EXTT4=
EXTT5=
EXTT6=
EXTT7=
EXTT8=
EXTT9=
EXTT10=
EXTT11=
EXTT12=
EXTT13=
PLAYORDER=
